<mxfile host="app.diagrams.net" modified="2024-07-19T09:37:20.990Z" agent="Mozilla/5.0 (Macintosh; Intel Mac OS X 10_15_7) AppleWebKit/537.36 (KHTML, like Gecko) Chrome/126.0.0.0 Safari/537.36" etag="4ak1EjpgTGG35paziG7Y" version="24.7.1" type="github">
  <diagram name="第 1 页" id="wkaObSJsGOy-7p4PDgdl">
    <mxGraphModel dx="1783" dy="-662" grid="1" gridSize="10" guides="1" tooltips="1" connect="1" arrows="1" fold="1" page="1" pageScale="1" pageWidth="827" pageHeight="1169" math="0" shadow="0">
      <root>
        <mxCell id="0" />
        <mxCell id="1" parent="0" />
        <mxCell id="piyK67Kds6DZjNLCxLBv-1" value="&lt;font style=&quot;font-size: 48px;&quot;&gt;二维码场景&lt;/font&gt;" style="text;strokeColor=none;fillColor=none;align=left;verticalAlign=middle;spacingLeft=4;spacingRight=4;overflow=hidden;points=[[0,0.5],[1,0.5]];portConstraint=eastwest;rotatable=0;whiteSpace=wrap;html=1;" parent="1" vertex="1">
          <mxGeometry x="-767.5" y="1277" width="537.5" height="110" as="geometry" />
        </mxCell>
        <mxCell id="piyK67Kds6DZjNLCxLBv-2" value="&lt;font style=&quot;font-size: 36px;&quot;&gt;业务视角&lt;/font&gt;" style="text;html=1;align=center;verticalAlign=middle;resizable=0;points=[];autosize=1;strokeColor=none;fillColor=none;" parent="1" vertex="1">
          <mxGeometry x="720" y="1520" width="170" height="60" as="geometry" />
        </mxCell>
        <mxCell id="piyK67Kds6DZjNLCxLBv-64" style="edgeStyle=orthogonalEdgeStyle;rounded=0;orthogonalLoop=1;jettySize=auto;html=1;exitX=0.5;exitY=1;exitDx=0;exitDy=0;" parent="1" source="piyK67Kds6DZjNLCxLBv-12" target="piyK67Kds6DZjNLCxLBv-63" edge="1">
          <mxGeometry relative="1" as="geometry" />
        </mxCell>
        <mxCell id="piyK67Kds6DZjNLCxLBv-12" value="KONG" style="rounded=1;whiteSpace=wrap;html=1;fillColor=#dae8fc;strokeColor=#6c8ebf;" parent="1" vertex="1">
          <mxGeometry x="980" y="1570" width="120" height="60" as="geometry" />
        </mxCell>
        <mxCell id="piyK67Kds6DZjNLCxLBv-13" value="" style="edgeStyle=orthogonalEdgeStyle;rounded=0;orthogonalLoop=1;jettySize=auto;html=1;" parent="1" source="piyK67Kds6DZjNLCxLBv-14" target="piyK67Kds6DZjNLCxLBv-12" edge="1">
          <mxGeometry relative="1" as="geometry" />
        </mxCell>
        <mxCell id="piyK67Kds6DZjNLCxLBv-14" value="APP" style="rounded=1;whiteSpace=wrap;html=1;fillColor=#f5f5f5;strokeColor=#666666;fontColor=#333333;" parent="1" vertex="1">
          <mxGeometry x="980" y="1440" width="120" height="60" as="geometry" />
        </mxCell>
        <mxCell id="piyK67Kds6DZjNLCxLBv-15" value="二维码气泡设置" style="rounded=1;whiteSpace=wrap;html=1;fillColor=#d5e8d4;strokeColor=#82b366;" parent="1" vertex="1">
          <mxGeometry x="730" y="1920" width="120" height="60" as="geometry" />
        </mxCell>
        <mxCell id="piyK67Kds6DZjNLCxLBv-16" value="二维码支付三方支付渠道" style="rounded=1;whiteSpace=wrap;html=1;fillColor=#d5e8d4;strokeColor=#82b366;" parent="1" vertex="1">
          <mxGeometry x="888" y="1920" width="120" height="60" as="geometry" />
        </mxCell>
        <mxCell id="piyK67Kds6DZjNLCxLBv-17" value="获取分页的SVC列表" style="rounded=1;whiteSpace=wrap;html=1;fillColor=#d5e8d4;strokeColor=#82b366;" parent="1" vertex="1">
          <mxGeometry x="1048" y="1920" width="120" height="60" as="geometry" />
        </mxCell>
        <mxCell id="piyK67Kds6DZjNLCxLBv-18" value="获取QRSeed" style="rounded=1;whiteSpace=wrap;html=1;fillColor=#d5e8d4;strokeColor=#82b366;" parent="1" vertex="1">
          <mxGeometry x="1209" y="1920" width="120" height="60" as="geometry" />
        </mxCell>
        <mxCell id="piyK67Kds6DZjNLCxLBv-23" value="&lt;font style=&quot;font-size: 36px;&quot;&gt;系统视角&lt;/font&gt;" style="text;html=1;align=center;verticalAlign=middle;resizable=0;points=[];autosize=1;strokeColor=none;fillColor=none;" parent="1" vertex="1">
          <mxGeometry x="-692" y="1500" width="170" height="60" as="geometry" />
        </mxCell>
        <mxCell id="piyK67Kds6DZjNLCxLBv-25" style="edgeStyle=orthogonalEdgeStyle;rounded=0;orthogonalLoop=1;jettySize=auto;html=1;exitX=0.5;exitY=1;exitDx=0;exitDy=0;entryX=0.5;entryY=0;entryDx=0;entryDy=0;" parent="1" source="piyK67Kds6DZjNLCxLBv-32" target="piyK67Kds6DZjNLCxLBv-45" edge="1">
          <mxGeometry relative="1" as="geometry" />
        </mxCell>
        <mxCell id="piyK67Kds6DZjNLCxLBv-26" style="edgeStyle=orthogonalEdgeStyle;rounded=0;orthogonalLoop=1;jettySize=auto;html=1;exitX=0.5;exitY=1;exitDx=0;exitDy=0;entryX=0.5;entryY=0;entryDx=0;entryDy=0;" parent="1" source="piyK67Kds6DZjNLCxLBv-32" edge="1">
          <mxGeometry relative="1" as="geometry">
            <mxPoint x="-423" y="1920" as="targetPoint" />
          </mxGeometry>
        </mxCell>
        <mxCell id="piyK67Kds6DZjNLCxLBv-29" style="edgeStyle=orthogonalEdgeStyle;rounded=0;orthogonalLoop=1;jettySize=auto;html=1;exitX=0.5;exitY=1;exitDx=0;exitDy=0;entryX=0.5;entryY=0;entryDx=0;entryDy=0;" parent="1" source="piyK67Kds6DZjNLCxLBv-32" edge="1">
          <mxGeometry relative="1" as="geometry">
            <mxPoint x="48" y="1920" as="targetPoint" />
          </mxGeometry>
        </mxCell>
        <mxCell id="piyK67Kds6DZjNLCxLBv-32" value="APP-BFF" style="rounded=1;whiteSpace=wrap;html=1;fillColor=#d5e8d4;strokeColor=#82b366;" parent="1" vertex="1">
          <mxGeometry x="-254" y="1720" width="120" height="60" as="geometry" />
        </mxCell>
        <mxCell id="piyK67Kds6DZjNLCxLBv-34" style="edgeStyle=orthogonalEdgeStyle;rounded=0;orthogonalLoop=1;jettySize=auto;html=1;exitX=0.5;exitY=1;exitDx=0;exitDy=0;entryX=0.5;entryY=0;entryDx=0;entryDy=0;" parent="1" source="piyK67Kds6DZjNLCxLBv-35" target="piyK67Kds6DZjNLCxLBv-32" edge="1">
          <mxGeometry relative="1" as="geometry" />
        </mxCell>
        <mxCell id="piyK67Kds6DZjNLCxLBv-35" value="KONG" style="rounded=1;whiteSpace=wrap;html=1;fillColor=#dae8fc;strokeColor=#6c8ebf;" parent="1" vertex="1">
          <mxGeometry x="-254" y="1570" width="120" height="60" as="geometry" />
        </mxCell>
        <mxCell id="piyK67Kds6DZjNLCxLBv-36" value="" style="edgeStyle=orthogonalEdgeStyle;rounded=0;orthogonalLoop=1;jettySize=auto;html=1;" parent="1" source="piyK67Kds6DZjNLCxLBv-37" target="piyK67Kds6DZjNLCxLBv-35" edge="1">
          <mxGeometry relative="1" as="geometry" />
        </mxCell>
        <mxCell id="piyK67Kds6DZjNLCxLBv-37" value="APP" style="rounded=1;whiteSpace=wrap;html=1;fillColor=#f5f5f5;strokeColor=#666666;fontColor=#333333;" parent="1" vertex="1">
          <mxGeometry x="-254" y="1440" width="120" height="60" as="geometry" />
        </mxCell>
        <mxCell id="piyK67Kds6DZjNLCxLBv-45" value="Provision" style="rounded=1;whiteSpace=wrap;html=1;fillColor=#ffe6cc;strokeColor=#d79b00;" parent="1" vertex="1">
          <mxGeometry x="-254" y="1920" width="120" height="60" as="geometry" />
        </mxCell>
        <mxCell id="piyK67Kds6DZjNLCxLBv-52" value="&lt;font style=&quot;font-size: 18px;&quot;&gt;1:1&lt;/font&gt;" style="text;html=1;align=center;verticalAlign=middle;resizable=0;points=[];autosize=1;strokeColor=none;fillColor=none;" parent="1" vertex="1">
          <mxGeometry x="-422.5" y="1852" width="50" height="40" as="geometry" />
        </mxCell>
        <mxCell id="piyK67Kds6DZjNLCxLBv-54" value="&lt;font style=&quot;font-size: 18px;&quot;&gt;1:2&lt;/font&gt;" style="text;html=1;align=center;verticalAlign=middle;resizable=0;points=[];autosize=1;strokeColor=none;fillColor=none;" parent="1" vertex="1">
          <mxGeometry x="-194" y="1852" width="50" height="40" as="geometry" />
        </mxCell>
        <mxCell id="piyK67Kds6DZjNLCxLBv-55" value="&lt;font style=&quot;font-size: 18px;&quot;&gt;1:2&lt;/font&gt;" style="text;html=1;align=center;verticalAlign=middle;resizable=0;points=[];autosize=1;strokeColor=none;fillColor=none;" parent="1" vertex="1">
          <mxGeometry x="50" y="1852" width="50" height="40" as="geometry" />
        </mxCell>
        <mxCell id="piyK67Kds6DZjNLCxLBv-59" value="&lt;font style=&quot;font-size: 18px;&quot;&gt;1:1&lt;/font&gt;" style="text;html=1;align=center;verticalAlign=middle;resizable=0;points=[];autosize=1;strokeColor=none;fillColor=none;" parent="1" vertex="1">
          <mxGeometry x="-194" y="1660" width="50" height="40" as="geometry" />
        </mxCell>
        <mxCell id="piyK67Kds6DZjNLCxLBv-65" style="edgeStyle=orthogonalEdgeStyle;rounded=0;orthogonalLoop=1;jettySize=auto;html=1;exitX=0.5;exitY=1;exitDx=0;exitDy=0;" parent="1" source="piyK67Kds6DZjNLCxLBv-63" target="piyK67Kds6DZjNLCxLBv-17" edge="1">
          <mxGeometry relative="1" as="geometry" />
        </mxCell>
        <mxCell id="piyK67Kds6DZjNLCxLBv-66" style="edgeStyle=orthogonalEdgeStyle;rounded=0;orthogonalLoop=1;jettySize=auto;html=1;exitX=0.5;exitY=1;exitDx=0;exitDy=0;entryX=0.5;entryY=0;entryDx=0;entryDy=0;" parent="1" source="piyK67Kds6DZjNLCxLBv-63" target="piyK67Kds6DZjNLCxLBv-18" edge="1">
          <mxGeometry relative="1" as="geometry" />
        </mxCell>
        <mxCell id="piyK67Kds6DZjNLCxLBv-67" style="edgeStyle=orthogonalEdgeStyle;rounded=0;orthogonalLoop=1;jettySize=auto;html=1;exitX=0.5;exitY=1;exitDx=0;exitDy=0;entryX=0.5;entryY=0;entryDx=0;entryDy=0;" parent="1" source="piyK67Kds6DZjNLCxLBv-63" target="piyK67Kds6DZjNLCxLBv-16" edge="1">
          <mxGeometry relative="1" as="geometry" />
        </mxCell>
        <mxCell id="piyK67Kds6DZjNLCxLBv-68" style="edgeStyle=orthogonalEdgeStyle;rounded=0;orthogonalLoop=1;jettySize=auto;html=1;exitX=0.5;exitY=1;exitDx=0;exitDy=0;" parent="1" source="piyK67Kds6DZjNLCxLBv-63" target="piyK67Kds6DZjNLCxLBv-15" edge="1">
          <mxGeometry relative="1" as="geometry" />
        </mxCell>
        <mxCell id="piyK67Kds6DZjNLCxLBv-63" value="APP-BFF" style="rounded=1;whiteSpace=wrap;html=1;fillColor=#d5e8d4;strokeColor=#82b366;" parent="1" vertex="1">
          <mxGeometry x="980" y="1720" width="120" height="60" as="geometry" />
        </mxCell>
        <mxCell id="smeM-BnwR-78MjEnYOPU-3" style="edgeStyle=orthogonalEdgeStyle;rounded=0;orthogonalLoop=1;jettySize=auto;html=1;exitX=1;exitY=0.5;exitDx=0;exitDy=0;shadow=0;" parent="1" source="piyK67Kds6DZjNLCxLBv-69" target="piyK67Kds6DZjNLCxLBv-86" edge="1">
          <mxGeometry relative="1" as="geometry" />
        </mxCell>
        <mxCell id="piyK67Kds6DZjNLCxLBv-69" value="二维码气泡设置&lt;br&gt;/app-bff-api/auth/getQrBubbleConfig" style="rounded=1;whiteSpace=wrap;html=1;fillColor=#d5e8d4;strokeColor=#82b366;shadow=0;" parent="1" vertex="1">
          <mxGeometry x="-530" y="2288" width="120" height="60" as="geometry" />
        </mxCell>
        <mxCell id="piyK67Kds6DZjNLCxLBv-70" value="&lt;font style=&quot;font-size: 36px;&quot;&gt;接口视角&lt;/font&gt;" style="text;html=1;align=center;verticalAlign=middle;resizable=0;points=[];autosize=1;strokeColor=none;fillColor=none;" parent="1" vertex="1">
          <mxGeometry x="-720" y="2120" width="170" height="60" as="geometry" />
        </mxCell>
        <mxCell id="smeM-BnwR-78MjEnYOPU-8" style="edgeStyle=orthogonalEdgeStyle;rounded=0;orthogonalLoop=1;jettySize=auto;html=1;exitX=1;exitY=0.5;exitDx=0;exitDy=0;entryX=0;entryY=0.5;entryDx=0;entryDy=0;" parent="1" source="piyK67Kds6DZjNLCxLBv-71" target="piyK67Kds6DZjNLCxLBv-83" edge="1">
          <mxGeometry relative="1" as="geometry" />
        </mxCell>
        <mxCell id="piyK67Kds6DZjNLCxLBv-71" value="二维码支付三方支付渠道&lt;br&gt;/app-bff-api/auth/libra-pay-channel" style="rounded=1;whiteSpace=wrap;html=1;fillColor=#d5e8d4;strokeColor=#82b366;" parent="1" vertex="1">
          <mxGeometry x="-542.5" y="2498" width="120" height="60" as="geometry" />
        </mxCell>
        <mxCell id="smeM-BnwR-78MjEnYOPU-11" style="edgeStyle=orthogonalEdgeStyle;rounded=0;orthogonalLoop=1;jettySize=auto;html=1;exitX=1;exitY=0.5;exitDx=0;exitDy=0;" parent="1" source="piyK67Kds6DZjNLCxLBv-72" target="piyK67Kds6DZjNLCxLBv-74" edge="1">
          <mxGeometry relative="1" as="geometry" />
        </mxCell>
        <mxCell id="piyK67Kds6DZjNLCxLBv-72" value="获取分页的SVC列表&lt;br&gt;/app-bff-api/auth/cards/getSvcCards" style="rounded=1;whiteSpace=wrap;html=1;fillColor=#d5e8d4;strokeColor=#82b366;" parent="1" vertex="1">
          <mxGeometry x="460" y="2288" width="120" height="60" as="geometry" />
        </mxCell>
        <mxCell id="smeM-BnwR-78MjEnYOPU-14" style="edgeStyle=orthogonalEdgeStyle;rounded=0;orthogonalLoop=1;jettySize=auto;html=1;exitX=1;exitY=0.5;exitDx=0;exitDy=0;shadow=1;" parent="1" source="piyK67Kds6DZjNLCxLBv-73" target="piyK67Kds6DZjNLCxLBv-78" edge="1">
          <mxGeometry relative="1" as="geometry" />
        </mxCell>
        <mxCell id="piyK67Kds6DZjNLCxLBv-73" value="获取QRSeed&lt;br&gt;/app-bff-api/auth/pay/getQrSeed" style="rounded=1;whiteSpace=wrap;html=1;fillColor=#d5e8d4;strokeColor=#82b366;shadow=1;" parent="1" vertex="1">
          <mxGeometry x="460" y="2484" width="120" height="60" as="geometry" />
        </mxCell>
        <mxCell id="smeM-BnwR-78MjEnYOPU-12" style="edgeStyle=orthogonalEdgeStyle;rounded=0;orthogonalLoop=1;jettySize=auto;html=1;exitX=1;exitY=0.5;exitDx=0;exitDy=0;" parent="1" source="piyK67Kds6DZjNLCxLBv-74" target="smeM-BnwR-78MjEnYOPU-2" edge="1">
          <mxGeometry relative="1" as="geometry" />
        </mxCell>
        <mxCell id="piyK67Kds6DZjNLCxLBv-74" value="&lt;span style=&quot;color: rgb(0, 0, 0);&quot;&gt;CRM Adapter&lt;/span&gt;" style="rounded=1;whiteSpace=wrap;html=1;fillColor=#a20025;fontColor=#ffffff;strokeColor=#6F0000;" parent="1" vertex="1">
          <mxGeometry x="650" y="2288" width="120" height="60" as="geometry" />
        </mxCell>
        <mxCell id="smeM-BnwR-78MjEnYOPU-15" style="edgeStyle=orthogonalEdgeStyle;rounded=0;orthogonalLoop=1;jettySize=auto;html=1;exitX=1;exitY=0.5;exitDx=0;exitDy=0;shadow=1;" parent="1" source="piyK67Kds6DZjNLCxLBv-78" target="smeM-BnwR-78MjEnYOPU-13" edge="1">
          <mxGeometry relative="1" as="geometry" />
        </mxCell>
        <mxCell id="piyK67Kds6DZjNLCxLBv-78" value="&lt;font color=&quot;#000000&quot;&gt;CRM Adapter&lt;br&gt;&lt;/font&gt;" style="rounded=1;whiteSpace=wrap;html=1;fillColor=#a20025;fontColor=#ffffff;strokeColor=#6F0000;shadow=1;" parent="1" vertex="1">
          <mxGeometry x="660" y="2484" width="120" height="60" as="geometry" />
        </mxCell>
        <mxCell id="smeM-BnwR-78MjEnYOPU-9" style="edgeStyle=orthogonalEdgeStyle;rounded=0;orthogonalLoop=1;jettySize=auto;html=1;exitX=1;exitY=0.5;exitDx=0;exitDy=0;entryX=0;entryY=0.5;entryDx=0;entryDy=0;" parent="1" source="piyK67Kds6DZjNLCxLBv-83" target="Byb6DfOmbPErkB33a7-Z-3" edge="1">
          <mxGeometry relative="1" as="geometry">
            <mxPoint x="-142.5" y="2490" as="targetPoint" />
          </mxGeometry>
        </mxCell>
        <mxCell id="smeM-BnwR-78MjEnYOPU-10" style="edgeStyle=orthogonalEdgeStyle;rounded=0;orthogonalLoop=1;jettySize=auto;html=1;exitX=1;exitY=0.5;exitDx=0;exitDy=0;entryX=0;entryY=0.5;entryDx=0;entryDy=0;" parent="1" source="piyK67Kds6DZjNLCxLBv-83" target="Byb6DfOmbPErkB33a7-Z-2" edge="1">
          <mxGeometry relative="1" as="geometry">
            <mxPoint x="-142.5" y="2563" as="targetPoint" />
          </mxGeometry>
        </mxCell>
        <mxCell id="piyK67Kds6DZjNLCxLBv-83" value="&lt;div&gt;Provision&lt;br&gt;&lt;/div&gt;" style="rounded=1;whiteSpace=wrap;html=1;fillColor=#ffe6cc;strokeColor=#d79b00;" parent="1" vertex="1">
          <mxGeometry x="-342.5" y="2498" width="120" height="60" as="geometry" />
        </mxCell>
        <mxCell id="piyK67Kds6DZjNLCxLBv-86" value="APP-BFF" style="rounded=1;whiteSpace=wrap;html=1;fillColor=#d5e8d4;strokeColor=#82b366;shadow=0;" parent="1" vertex="1">
          <mxGeometry x="-322.5" y="2288" width="120" height="60" as="geometry" />
        </mxCell>
        <mxCell id="piyK67Kds6DZjNLCxLBv-88" value="&lt;font style=&quot;font-size: 18px;&quot;&gt;1:1&lt;/font&gt;" style="text;html=1;align=center;verticalAlign=middle;resizable=0;points=[];autosize=1;strokeColor=none;fillColor=none;shadow=0;" parent="1" vertex="1">
          <mxGeometry x="-380" y="2280" width="50" height="40" as="geometry" />
        </mxCell>
        <mxCell id="piyK67Kds6DZjNLCxLBv-89" value="APP-BFF" style="rounded=1;whiteSpace=wrap;html=1;fillColor=#d5e8d4;strokeColor=#82b366;" parent="1" vertex="1">
          <mxGeometry x="-480" y="1920" width="120" height="60" as="geometry" />
        </mxCell>
        <mxCell id="piyK67Kds6DZjNLCxLBv-90" value="&lt;font color=&quot;#000000&quot;&gt;CRM Adapter&lt;br&gt;&lt;/font&gt;" style="rounded=1;whiteSpace=wrap;html=1;fillColor=#a20025;fontColor=#ffffff;strokeColor=#6F0000;" parent="1" vertex="1">
          <mxGeometry x="-10" y="1920" width="120" height="60" as="geometry" />
        </mxCell>
        <mxCell id="smeM-BnwR-78MjEnYOPU-2" value="&lt;span style=&quot;text-wrap: wrap;&quot;&gt;post&amp;nbsp; api/v2/asset/card/getSvcCards&lt;/span&gt;" style="text;html=1;align=center;verticalAlign=middle;resizable=0;points=[];autosize=1;strokeColor=none;fillColor=none;" parent="1" vertex="1">
          <mxGeometry x="827" y="2303" width="220" height="30" as="geometry" />
        </mxCell>
        <mxCell id="smeM-BnwR-78MjEnYOPU-13" value="&lt;span style=&quot;text-wrap: wrap;&quot;&gt;post&amp;nbsp; api/v2/asset/pay/getQrSeed&lt;/span&gt;" style="text;html=1;align=center;verticalAlign=middle;resizable=0;points=[];autosize=1;strokeColor=none;fillColor=none;shadow=1;" parent="1" vertex="1">
          <mxGeometry x="844" y="2499" width="200" height="30" as="geometry" />
        </mxCell>
        <mxCell id="smeM-BnwR-78MjEnYOPU-16" value="&lt;font style=&quot;font-size: 18px;&quot;&gt;1:2&lt;/font&gt;" style="text;html=1;align=center;verticalAlign=middle;resizable=0;points=[];autosize=1;strokeColor=none;fillColor=none;" parent="1" vertex="1">
          <mxGeometry x="-416.5" y="2490" width="50" height="40" as="geometry" />
        </mxCell>
        <mxCell id="smeM-BnwR-78MjEnYOPU-17" value="&lt;font style=&quot;font-size: 18px;&quot;&gt;1:1&lt;/font&gt;" style="text;html=1;align=center;verticalAlign=middle;resizable=0;points=[];autosize=1;strokeColor=none;fillColor=none;" parent="1" vertex="1">
          <mxGeometry x="590" y="2280" width="50" height="40" as="geometry" />
        </mxCell>
        <mxCell id="smeM-BnwR-78MjEnYOPU-18" value="&lt;font style=&quot;font-size: 18px;&quot;&gt;1:1&lt;/font&gt;" style="text;html=1;align=center;verticalAlign=middle;resizable=0;points=[];autosize=1;strokeColor=none;fillColor=none;shadow=1;" parent="1" vertex="1">
          <mxGeometry x="599" y="2476" width="50" height="40" as="geometry" />
        </mxCell>
        <mxCell id="Byb6DfOmbPErkB33a7-Z-1" value="&lt;span style=&quot;color: rgb(23, 43, 77); font-family: -apple-system, BlinkMacSystemFont, &amp;quot;Segoe UI&amp;quot;, Roboto, Oxygen, Ubuntu, &amp;quot;Fira Sans&amp;quot;, &amp;quot;Droid Sans&amp;quot;, &amp;quot;Helvetica Neue&amp;quot;, sans-serif; font-size: 14px; font-weight: 700; text-align: left; background-color: rgb(255, 255, 255);&quot;&gt;Couchbase&lt;/span&gt;" style="whiteSpace=wrap;html=1;" parent="1" vertex="1">
          <mxGeometry x="160" y="2547.5" width="80" height="23" as="geometry" />
        </mxCell>
        <mxCell id="Byb6DfOmbPErkB33a7-Z-5" style="edgeStyle=orthogonalEdgeStyle;rounded=0;orthogonalLoop=1;jettySize=auto;html=1;exitX=1;exitY=0.5;exitDx=0;exitDy=0;entryX=0;entryY=0.5;entryDx=0;entryDy=0;" parent="1" source="Byb6DfOmbPErkB33a7-Z-2" target="Byb6DfOmbPErkB33a7-Z-1" edge="1">
          <mxGeometry relative="1" as="geometry" />
        </mxCell>
        <mxCell id="Byb6DfOmbPErkB33a7-Z-2" value="&lt;span style=&quot;text-wrap: nowrap;&quot;&gt;get /app-provision-api/auth/libra-pay-channel&lt;/span&gt;" style="whiteSpace=wrap;html=1;" parent="1" vertex="1">
          <mxGeometry x="-144" y="2544" width="250" height="30" as="geometry" />
        </mxCell>
        <mxCell id="Byb6DfOmbPErkB33a7-Z-9" style="edgeStyle=orthogonalEdgeStyle;rounded=0;orthogonalLoop=1;jettySize=auto;html=1;exitX=1;exitY=0.5;exitDx=0;exitDy=0;entryX=0;entryY=0.5;entryDx=0;entryDy=0;" parent="1" source="Byb6DfOmbPErkB33a7-Z-3" target="Byb6DfOmbPErkB33a7-Z-7" edge="1">
          <mxGeometry relative="1" as="geometry" />
        </mxCell>
        <mxCell id="Byb6DfOmbPErkB33a7-Z-10" style="edgeStyle=orthogonalEdgeStyle;rounded=0;orthogonalLoop=1;jettySize=auto;html=1;exitX=1;exitY=0.5;exitDx=0;exitDy=0;entryX=0;entryY=0.5;entryDx=0;entryDy=0;" parent="1" source="Byb6DfOmbPErkB33a7-Z-3" edge="1">
          <mxGeometry relative="1" as="geometry">
            <mxPoint x="200" y="2509.5" as="targetPoint" />
          </mxGeometry>
        </mxCell>
        <mxCell id="Byb6DfOmbPErkB33a7-Z-3" value="&lt;span style=&quot;text-wrap: nowrap;&quot;&gt;get /app-provision-api/auth/custom-configs&lt;/span&gt;&lt;div style=&quot;text-wrap: nowrap;&quot;&gt;?modelCode=libra-pay-channel&amp;amp;lang=${lang}&lt;/div&gt;" style="whiteSpace=wrap;html=1;" parent="1" vertex="1">
          <mxGeometry x="-144" y="2481" width="260" height="30" as="geometry" />
        </mxCell>
        <mxCell id="Byb6DfOmbPErkB33a7-Z-7" value="&lt;span style=&quot;color: rgb(23, 43, 77); font-family: -apple-system, BlinkMacSystemFont, &amp;quot;Segoe UI&amp;quot;, Roboto, Oxygen, Ubuntu, &amp;quot;Fira Sans&amp;quot;, &amp;quot;Droid Sans&amp;quot;, &amp;quot;Helvetica Neue&amp;quot;, sans-serif; font-size: 14px; font-weight: 700; text-align: left; background-color: rgb(255, 255, 255);&quot;&gt;Caffeine&lt;/span&gt;" style="whiteSpace=wrap;html=1;" parent="1" vertex="1">
          <mxGeometry x="200" y="2454" width="60" height="30" as="geometry" />
        </mxCell>
        <mxCell id="Byb6DfOmbPErkB33a7-Z-11" value="1:3" style="text;html=1;align=center;verticalAlign=middle;resizable=0;points=[];autosize=1;strokeColor=none;fillColor=none;" parent="1" vertex="1">
          <mxGeometry x="160" y="2446" width="40" height="30" as="geometry" />
        </mxCell>
        <mxCell id="Byb6DfOmbPErkB33a7-Z-12" value="1:3" style="text;html=1;align=center;verticalAlign=middle;resizable=0;points=[];autosize=1;strokeColor=none;fillColor=none;" parent="1" vertex="1">
          <mxGeometry x="160" y="2511" width="40" height="30" as="geometry" />
        </mxCell>
        <mxCell id="Byb6DfOmbPErkB33a7-Z-13" value="1:1" style="text;html=1;align=center;verticalAlign=middle;resizable=0;points=[];autosize=1;strokeColor=none;fillColor=none;" parent="1" vertex="1">
          <mxGeometry x="110" y="2538" width="40" height="30" as="geometry" />
        </mxCell>
        <mxCell id="TBPTUeVe-GpozS2f5vF2-1" value="&lt;span style=&quot;color: rgb(23, 43, 77); font-family: -apple-system, &amp;quot;system-ui&amp;quot;, &amp;quot;Segoe UI&amp;quot;, Roboto, Oxygen, Ubuntu, &amp;quot;Fira Sans&amp;quot;, &amp;quot;Droid Sans&amp;quot;, &amp;quot;Helvetica Neue&amp;quot;, sans-serif; font-size: 14px; font-weight: 700; text-align: left; background-color: rgb(255, 255, 255);&quot;&gt;Couchbase&lt;/span&gt;" style="shape=cylinder3;whiteSpace=wrap;html=1;boundedLbl=1;backgroundOutline=1;size=15;" vertex="1" parent="1">
          <mxGeometry x="200" y="2490" width="90" height="57.5" as="geometry" />
        </mxCell>
      </root>
    </mxGraphModel>
  </diagram>
</mxfile>
